# xmcd
#
# Track frame offsets:
#	150
#	13928
#	45564
#	77239
#	107575
#	135653
#	165427
#	196961
#	209610
#	230711
#	256422
#
# Disc length: 3657 seconds
#
# Revision: 1
# Processed by: cddbd v1.5.2PL0 Copyright (c) Steve Scherf et al.
# Submitted via: EasyCDDAExtractor 16.0.6.1
#
DISCID=950e470b
DTITLE=LYLIAM MADRIZ DE CHACON - SANTO ROSARIO LUZ
DYEAR=2012
DGENRE=Vocal
TTITLE0=VIRGEN DEL ROSARIO
TTITLE1=PETICIONES
TTITLE2=MISTERIO DE LUZ I
TTITLE3=MISTERIO DE LUZ II
TTITLE4=MISTERIO DE LUZ III
TTITLE5=MISTERIO DE LUZ IV
TTITLE6=MISTERIO DE LUZ V
TTITLE7=SALVE
TTITLE8=LETANIAS
TTITLE9=ORACIONES FINALES
TTITLE10=TESTIMONIO
EXTD=
EXTT0=
EXTT1=
EXTT2=
EXTT3=
EXTT4=
EXTT5=
EXTT6=
EXTT7=
EXTT8=
EXTT9=
EXTT10=
PLAYORDER=
